<svg xmlns="http://www.w3.org/2000/svg" version="1.1" x="0" y="0" width="20" height="20" viewBox="0" enable-background="new 0 0 20 20" xml:space="preserve"><path fill="#010101" d="M10.951 11.121c-0.521-0.101-1.581-0.181-2.061-0.181 -0.34 0-0.54 0.221-0.54 0.521v0.88c0 0.301 0.2 0.521 0.54 0.521 0.48 0 1.5-0.24 2.061-0.42 0.36-0.12 0.54-0.24 0.54-0.48v-0.4C11.492 11.321 11.331 11.201 10.951 11.121z"/><path fill="#010101" d="M10 2c-4.418 0-8 3.582-8 8s3.582 8 8 8 8-3.582 8-8S14.418 2 10 2zM13.792 14.641h-2.3v-0.46c-0.98 0.34-2.281 0.66-3.261 0.66 -1.36 0-2.121-0.94-2.121-2.101V11.14c0-1.16 0.76-2.101 2.121-2.101 0.98 0 2.46 0.181 3.261 0.421V7.7c0-0.3-0.24-0.521-0.54-0.521H9.171c-0.3 0-0.54 0.221-0.54 0.521v0.32H6.41V7.219c0-1.16 0.9-2.061 2.08-2.061h3.221c1.161 0 2.081 0.94 2.081 2.101V14.641z"/></svg>